<?xml version="1.0" standalone="no"?><!DOCTYPE svg PUBLIC "-//W3C//DTD SVG 1.1//EN" "http://www.w3.org/Graphics/SVG/1.1/DTD/svg11.dtd"><svg t="1499153709572" class="icon" style="" viewBox="0 0 1024 1024" version="1.1" xmlns="http://www.w3.org/2000/svg" p-id="2377" xmlns:xlink="http://www.w3.org/1999/xlink" width="200" height="200"><defs><style type="text/css"></style></defs><path d="M909.81888 512.23936c1.02144 218.69184-178.87104 397.91872-398.10944 397.7024C292.89984 909.72288 113.86624 730.59456 114.17472 511.42272 114.48064 292.76288 293.46944 113.6704 512.8576 114.05952 731.31008 114.44608 910.9952 293.13792 909.81888 512.23936zM851.91168 511.87968c-0.06528-187.37152-152.06528-339.5648-339.24352-339.67872-188.12032-0.11008-340.38912 151.96416-340.34816 339.90912 0.04224 187.62624 152.21632 339.69792 339.90784 339.6736C699.8464 851.75936 851.97696 699.52768 851.91168 511.87968z" p-id="2378" fill="#ff4400"></path><path d="M482.51392 455.29984c0-72.6208-0.00256-145.24416 0.00256-217.86496 0.00256-10.17728 0.02432-10.18752 10.3872-10.19392 13.728-0.00512 27.456 0.1408 41.18016-0.064 5.0496-0.07552 7.53408 1.65632 7.13088 6.88768-0.1344 1.76-0.00768 3.54176-0.00768 5.312 0.00256 143.69152 0.00256 287.38688-0.00256 431.07712 0 2.43584-0.0768 4.87168-0.06016 7.30624 0.02176 3.60832-1.9136 5.28128-5.34656 5.2864-15.94112 0.032-31.88096 0.0256-47.8208 0.01152-3.90656-0.00512-5.53088-2.14912-5.43488-5.91232 0.06016-2.21184-0.02688-4.42752-0.02688-6.64192C482.51392 598.77248 482.51392 527.03616 482.51392 455.29984z" p-id="2379" fill="#ff4400"></path><path d="M482.528 752.66304c-0.00256-11.93088 0.16512-23.86816-0.07808-35.79776-0.11008-5.47328 2.02496-7.3984 7.4304-7.3152 14.8032 0.23552 29.61024 0.21632 44.416 0.01408 5.2096-0.0704 6.99008 2.04416 6.9632 7.08736-0.13824 24.30976-0.1408 48.61568-0.00256 72.92288 0.02944 5.14688-1.97376 7.02592-7.08224 6.95808-15.02336-0.20608-30.05568-0.18944-45.08032-0.01408-4.91648 0.05632-6.66368-2.01472-6.61248-6.73152C482.62016 777.41568 482.53056 765.03808 482.528 752.66304z" p-id="2380" fill="#ff4400"></path></svg>