<?xml version="1.0" standalone="no"?><!DOCTYPE svg PUBLIC "-//W3C//DTD SVG 1.1//EN" "http://www.w3.org/Graphics/SVG/1.1/DTD/svg11.dtd"><svg t="1503989290789" class="icon" style="" viewBox="0 0 1024 1024" version="1.1" xmlns="http://www.w3.org/2000/svg" p-id="1214" xmlns:xlink="http://www.w3.org/1999/xlink" width="200" height="200"><defs><style type="text/css"></style></defs><path d="M943.305655 272.285406c-18.642592-16.780175-48.88129-16.780175-67.521836 0L391.699612 708.677405 146.352741 487.512283c-18.641569-16.821107-48.879244-16.821107-67.520813 0-18.641569 16.781198-18.641569 44.011376 0 60.872392l303.84417 273.883811c3.244904 2.927679 5.857405 4.432962 7.995091 4.787026 0.118704 0.041956 0.237407 0.041956 0.35611 0.041956h0.118704c0.118704 0.037862 0.237407 0.077771 0.39602 0.077771h0.35611c0.118704 0 0.277316-0.039909 0.39602-0.077771h0.118703c0.079818 0 0.237407 0 0.317225-0.041956 2.176572-0.354064 4.750187-1.858324 7.995091-4.787026L943.307701 333.155752c18.637476-16.781198 18.637476-44.050262-0.002046-60.870346z" fill="#FF4400" p-id="1215"></path></svg>